<svg width="131" height="55" viewBox="0 0 131 55" fill="none" xmlns="http://www.w3.org/2000/svg">
<g clip-path="url(#clip0_940_1046)">
<path d="M0 36.4312V28.5539C0 22.0944 3.88556 18.2082 10.8563 18.2082C17.827 18.2082 21.7271 22.1469 21.7271 28.5539V36.4312C21.7271 42.8907 17.8416 46.8162 10.8563 46.8162C3.87101 46.8162 0 42.8907 0 36.4312ZM16.7064 36.4312V28.5145C16.7064 24.5758 14.7418 22.5802 10.8854 22.5802C7.02893 22.5802 5.06432 24.5233 5.06432 28.5145V36.4838C5.06432 40.4224 7.02893 42.4574 10.8854 42.4574C14.7418 42.4574 16.7064 40.4618 16.7064 36.4838" fill="#F2F2F2"/>
<path d="M109.146 36.1285V28.2512C109.146 21.7917 113.031 17.9055 120.016 17.9055C127.002 17.9055 130.873 21.8442 130.873 28.2512V36.1285C130.873 42.588 127.002 46.5135 120.016 46.5135C113.031 46.5135 109.146 42.588 109.146 36.1285ZM125.867 36.1285V28.2118C125.867 24.2731 123.887 22.2775 120.045 22.2775C116.204 22.2775 114.224 24.2206 114.224 28.2118V36.181C114.224 40.1197 116.189 42.1547 120.045 42.1547C123.902 42.1547 125.867 40.1591 125.867 36.181" fill="#F2F2F2"/>
<path d="M65.6617 12.6933H63.6244C63.2735 12.7331 62.9172 12.7021 62.5812 12.6024C62.2453 12.5028 61.9381 12.3371 61.6818 12.1172C61.4256 11.8973 61.2267 11.6288 61.0996 11.3311C60.9724 11.0334 60.9202 10.7139 60.9467 10.3958C60.9198 10.0781 60.9718 9.75898 61.099 9.46177C61.2263 9.16455 61.4254 8.89671 61.682 8.6778C61.9386 8.45889 62.2462 8.29443 62.5822 8.19642C62.9182 8.09842 63.2743 8.06934 63.6244 8.11132H65.6617C66.0158 8.06321 66.3772 8.08757 66.7194 8.18259C67.0615 8.27761 67.3756 8.44086 67.6384 8.66024C67.9011 8.87963 68.1058 9.14952 68.2372 9.44995C68.3686 9.75037 68.4235 10.0736 68.3976 10.3958C68.4218 10.7146 68.3675 11.0343 68.2386 11.3319C68.1098 11.6295 67.9095 11.8978 67.6522 12.1174C67.3948 12.337 67.0869 12.5025 66.7503 12.6021C66.4137 12.7016 66.0569 12.7328 65.7054 12.6933" fill="#F2F2F2"/>
<path d="M81.9321 36.1285V28.2512C81.9321 21.7917 85.8031 17.9055 92.7884 17.9055C99.7737 17.9055 103.659 21.8442 103.659 28.2512V36.1285C103.659 42.588 99.7737 46.5135 92.7884 46.5135C85.8031 46.5135 81.9321 42.5749 81.9321 36.1285ZM98.6385 36.1285V28.2118C98.6385 24.2731 96.6739 22.2775 92.8175 22.2775C88.961 22.2775 86.9964 24.2206 86.9964 28.2118V36.181C86.9964 40.1197 88.9756 42.1547 92.8175 42.1547C96.6594 42.1547 98.6385 40.1591 98.6385 36.181" fill="#F2F2F2"/>
<path d="M86.6325 33.949H82.2667C82.1857 33.949 82.1079 33.92 82.0506 33.8682C81.9933 33.8165 81.9611 33.7464 81.9611 33.6733V10.3562C81.9611 9.76082 82.2233 9.18978 82.69 8.76876C83.1567 8.34773 83.7896 8.11119 84.4496 8.11119C85.1096 8.11119 85.7426 8.34773 86.2093 8.76876C86.6759 9.18978 86.9381 9.76082 86.9381 10.3562V33.6733C86.9381 33.7464 86.9059 33.8165 86.8486 33.8682C86.7913 33.92 86.7136 33.949 86.6325 33.949Z" fill="#F2F2F2"/>
<path d="M73.3746 33.5949C73.942 33.5949 74.4861 33.3915 74.8873 33.0296C75.2885 32.6676 75.5138 32.1768 75.5138 31.6649V28.2645C75.5138 21.7919 71.6428 17.9189 64.6576 17.9189C57.6723 17.9189 53.8449 21.7919 53.8449 28.2645V36.1419C53.8449 42.6013 57.7305 46.5269 64.7158 46.5269C70.1439 46.5269 73.6948 44.1505 75.0045 40.0543C75.1148 39.7112 75.1353 39.3497 75.0646 38.9982C74.9938 38.6467 74.8337 38.3147 74.5968 38.0285C74.3599 37.7422 74.0526 37.5094 73.6992 37.3484C73.3457 37.1873 72.9556 37.1024 72.5597 37.1003C72.0371 37.0929 71.5262 37.2404 71.1056 37.5203C70.6849 37.8002 70.3778 38.1969 70.2312 38.6495C69.95 39.7441 69.2328 40.7072 68.2159 41.3559C67.199 42.0047 65.9534 42.2937 64.7158 42.1681C60.8302 42.1681 58.8947 40.1725 58.8947 36.1944V33.8312C58.8947 33.7685 58.9223 33.7084 58.9714 33.6641C59.0206 33.6198 59.0872 33.5949 59.1567 33.5949H73.3746ZM59.0693 29.5511C58.9999 29.5511 58.9332 29.5262 58.8841 29.4819C58.835 29.4376 58.8074 29.3775 58.8074 29.3148V28.212C58.8074 24.2733 60.772 22.2777 64.6285 22.2777C68.4849 22.2777 70.4495 24.2208 70.4495 28.212V29.3148C70.4495 29.3775 70.4219 29.4376 70.3728 29.4819C70.3237 29.5262 70.257 29.5511 70.1876 29.5511H59.0693Z" fill="#F2F2F2"/>
<path d="M48.7221 28.0945C48.5184 21.8845 44.6765 18.2084 37.8367 18.2084C30.997 18.2084 26.9805 22.1471 26.9805 28.554V36.4314C26.9805 42.8908 30.8515 46.8164 37.8367 46.8164C44.822 46.8164 48.6203 42.9565 48.693 36.6021V36.4839C48.6977 35.9618 48.4798 35.458 48.0843 35.0768C47.6889 34.6956 47.1461 34.4661 46.5683 34.4358H46.0881C45.4894 34.4424 44.9169 34.6581 44.4908 35.0376C44.0648 35.4171 43.8183 35.9308 43.8033 36.4708C43.8033 40.4095 41.8387 42.4444 37.9823 42.4444C34.1258 42.4444 32.1612 40.4488 32.1612 36.4708V28.5015C32.1612 24.5628 34.1258 22.5672 37.9823 22.5672C41.8387 22.5672 43.8033 24.5103 43.8033 28.5015V28.6722C43.811 29.1829 44.0413 29.6704 44.4444 30.0292C44.8474 30.3879 45.3909 30.589 45.9571 30.589H46.5683C46.8467 30.589 47.1222 30.5393 47.3792 30.4428C47.6362 30.3463 47.8695 30.2049 48.0656 30.0268C48.2617 29.8486 48.4169 29.6372 48.522 29.4047C48.6272 29.1722 48.6804 28.9233 48.6785 28.6722L48.7221 28.0945Z" fill="#F2F2F2"/>
</g>
<defs>
<clipPath id="clip0_940_1046">
<rect width="130.873" height="54.6251" fill="white"/>
</clipPath>
</defs>
</svg>
