<svg width="2578" height="6772" viewBox="0 0 2578 6772" fill="none" xmlns="http://www.w3.org/2000/svg">
<g filter="url(#filter0_f_891_1450)">
<path d="M1746.31 338.485C1793.7 432.863 1841.21 555.997 1856.34 658.968C1856.56 660.403 1856.78 661.836 1856.99 663.269C1863.06 705.117 1866.5 748.428 1861.8 799.996C1861.17 806.558 1860.4 813.191 1859.43 820.053C1858.47 826.789 1857.34 833.643 1855.99 840.62C1844.83 897.318 1824.85 965.626 1778.28 1044.92C1595.97 1333.37 1316.38 1422.08 1239.91 1482.65C1236.97 1484.76 1234.13 1486.79 1231.42 1488.72C1093.91 1589.4 920.261 1701.1 831.286 1948.47C824.005 1971.01 817.947 1994.66 813.49 2019.04C809.819 2038.99 807.704 2055.41 807.123 2055.88C806.602 2056.24 807.785 2040.34 811.396 2020.33C815.717 1996.3 821.531 1973.18 828.562 1950.97C828.593 1950.87 828.625 1950.77 828.657 1950.67C917.809 1700.75 1088.74 1591.66 1222.72 1492.64C1227.15 1489.49 1233.16 1485.22 1238.84 1481.15C1323.75 1416.45 1603.46 1325.83 1780.66 1037.17C1824.09 961.251 1843.36 895.372 1854.17 840.277C1856.19 829.826 1857.73 819.59 1858.9 809.743C1859.68 803.1 1860.3 796.575 1860.77 790.191C1860.78 790.041 1860.8 789.891 1860.81 789.741C1864.35 737.907 1860.27 696.649 1854.12 656.711C1853.99 655.862 1853.85 655.013 1853.71 654.163C1837.59 550.438 1790.23 430.087 1744.35 338.656C1735.66 321.123 1728.71 307.039 1729.25 306.964C1729.8 306.936 1737.62 320.927 1746.31 338.485ZM348.124 4183.24C347.002 4224.25 351.974 4271.05 366.555 4317.52C388.363 4388.72 428.52 4459.7 478.652 4514C561.796 4606.02 667.507 4651.1 715.981 4668.84C763.958 4686.51 818.834 4701.12 885.822 4710.75C901.482 4712.98 916.884 4714.83 933.733 4716.44C988.401 4721.66 1049.53 4723.2 1116.29 4719.81C1205.44 4715.19 1283.22 4703.41 1350.53 4690.46C1468.04 4667.84 1558.12 4660 1630.17 4657.19C1652.9 4656.33 1675.52 4656.01 1695.31 4656.13C1695.34 4656.13 1695.38 4656.14 1695.41 4656.14C1771.9 4656.71 1829.06 4662.43 1880.97 4670.42C1973.03 4685.31 2047.44 4705.86 2131.14 4742.81C2248.33 4790.9 2393.07 4907.78 2448.26 5011.62C2451.51 5017.21 2454.65 5022.87 2457.69 5028.62C2461.03 5034.95 2464.21 5041.36 2467.23 5047.84C2498.89 5121.63 2550.14 5215.14 2546.45 5358.96C2539.39 5489.58 2474.92 5591.23 2415.52 5670.96C2398.27 5693.76 2380.42 5715.42 2363.19 5735.27C2319.17 5785.82 2276.91 5828.11 2235.52 5867.59C2107.5 5988.36 1998.1 6073.08 1910.21 6140.95C1822.81 6207.33 1750.39 6247.63 1694.56 6277.65C1608.07 6323.18 1557.42 6344.2 1521.32 6359.78C1510.35 6364.43 1500.48 6368.53 1491.42 6372.26C1409.62 6405.81 1333.51 6433.78 1240.72 6464.25C1220.1 6471 1198.65 6477.83 1176.14 6484.8C1100.82 6508.05 1044.29 6523.95 999.893 6536.27C980.437 6541.65 963.347 6546.29 947.261 6550.6C946.963 6550.68 946.669 6550.75 946.369 6550.83C944.105 6551.44 941.86 6552.04 939.632 6552.63C937.951 6553.08 936.274 6553.53 934.594 6553.97C933.935 6554.15 933.344 6554.31 932.902 6554.43C932.553 6554.53 932.281 6554.6 932.106 6554.65C932.073 6554.66 932.04 6554.67 932.007 6554.68C928.831 6555.54 926.095 6556.27 925.534 6556.42C924.555 6556.68 923.686 6556.9 923.242 6557.02C920.897 6557.64 917.876 6558.42 915.869 6558.94C910.709 6560.27 901.74 6562.59 887.915 6566.1C875.959 6569.14 864.188 6572.13 849.667 6575.77C848.752 6576 847.836 6576.23 846.92 6576.46C832.679 6580.02 816.408 6584.04 795.355 6589.12C776.285 6593.71 758.797 6597.4 756.149 6597.5C753.513 6597.59 766.668 6594.09 785.69 6589.54C805.476 6584.8 820.896 6581.01 835.054 6577.5C835.951 6577.28 836.848 6577.05 837.746 6576.83C852.492 6573.16 866.617 6569.61 881.66 6565.79C886.679 6564.51 891.859 6563.19 896.702 6561.96C905.418 6559.72 915.345 6557.13 927.247 6553.99C929.636 6553.36 932.102 6552.71 934.623 6552.04C950.88 6547.73 969.437 6542.73 990.624 6536.91C1040.12 6523.26 1102.63 6505.73 1184.51 6480.27C1205.97 6473.58 1226.7 6466.93 1246.93 6460.27C1339.98 6429.56 1421.78 6399.38 1508.22 6363.21C1520.13 6358.21 1531.48 6353.38 1543.54 6348.13C1579.15 6332.37 1622.36 6313.96 1702 6271.58C1754.55 6243 1824.2 6204 1909.1 6139.5C1995.29 6072.93 2103.93 5988.91 2231.83 5868.56C2275.18 5827.36 2320.25 5782.15 2364.77 5730.64C2381.43 5711.34 2398.64 5690.28 2414.81 5668.86C2473.15 5590.48 2534.86 5492.19 2544.11 5367.16C2550.54 5218.41 2497.76 5124.33 2465.52 5048.62C2464.63 5046.7 2463.72 5044.79 2462.8 5042.88C2461.55 5040.31 2460.27 5037.73 2458.95 5035.14C2457.32 5031.94 2455.61 5028.68 2453.99 5025.67C2399.02 4913.49 2244.98 4788.14 2114.72 4737.7C2033.81 4703.89 1962.65 4684.85 1871.39 4670.83C1826.2 4664.33 1777.44 4659.05 1702.5 4658.03C1681.8 4657.8 1658.14 4658.01 1632.77 4658.93C1559.88 4661.65 1469.01 4669.52 1350.88 4692.26C1282.17 4705.47 1202.73 4717.45 1111.78 4721.87C1047.03 4724.93 988.397 4723.45 933.98 4718.3C916.749 4716.66 900.79 4714.76 884.271 4712.38C816.918 4702.67 755.242 4686.58 700.138 4664.8C655.713 4647.42 553.635 4601.74 473.584 4511.13C423.194 4455.28 385.394 4385.18 364.801 4318.07C351.98 4277.17 346.828 4237.12 346.165 4202.42C345.975 4192.83 346.114 4183.22 346.587 4173.58C350.001 4090.31 382.286 4008.72 421.659 3952.84C477.785 3866.99 591.18 3786.49 729.512 3756.02C908.883 3706.41 1129.68 3703.47 1306.46 3777.39C1391.27 3809.97 1471.69 3842.27 1545.31 3866.75C1549.81 3868.26 1554.14 3869.7 1558.59 3871.16C1753.01 3936.17 1934.65 3960.75 2066.78 3923.61C2200.32 3887.84 2263.39 3801.25 2289.89 3761.06C2292.48 3757.08 2294.76 3753.44 2296.68 3750.31C2298.42 3747.47 2299.97 3744.86 2301.33 3742.54C2314.6 3719.8 2324.66 3698.75 2334.08 3675.83C2339.37 3662.9 2344.32 3650.18 2349.06 3637.4C2349.77 3635.47 2350.48 3633.54 2351.18 3631.62C2365.11 3593.2 2377.89 3552.99 2388.84 3504.28C2431.24 3322.3 2395.59 3163.75 2320.2 3058.28C2306.54 3038.52 2291.87 3020.34 2276.45 3003.44C2276.4 3003.39 2276.36 3003.34 2276.31 3003.29C2208.31 2929.48 2130.57 2881.74 2054 2844.98C2002.04 2820.33 1954.21 2802.95 1911.04 2789.24C1837.93 2766.33 1778.16 2752.7 1727.66 2741.2C1702.37 2735.52 1679.2 2730.54 1657.09 2725.84C1609.53 2715.76 1567.79 2707.21 1524.82 2698C1443.94 2680.67 1369.59 2663.68 1297.13 2642.73C1290.64 2640.86 1284.2 2638.95 1277.78 2637.02C1199.78 2613.3 1122.81 2585.09 1047.81 2541.23C1030.56 2531.11 1016.82 2521.32 1016.77 2520.69C1016.7 2520.01 1030.29 2528.76 1047.44 2538.88C1120.08 2581.57 1194.63 2609.53 1272.62 2633.53C1279.04 2635.49 1285.52 2637.43 1292.04 2639.34C1364.29 2660.48 1439.85 2677.9 1522.22 2695.57C1563.67 2704.46 1603.01 2712.54 1649.74 2722.41C1672.06 2727.13 1695.87 2732.22 1722.6 2738.19C1774.56 2749.96 1836.17 2763.87 1911.59 2787.49C1954.59 2801.14 2002.07 2818.4 2053.51 2842.72C2129.33 2879.02 2206.52 2925.87 2275.2 2999.38C2290.9 3016.33 2305.9 3034.66 2319.9 3054.63C2396.49 3160.22 2433.43 3320.23 2390.86 3503.62C2380.59 3549.62 2368.62 3588.28 2355.06 3626.3C2354.29 3628.45 2353.5 3630.65 2352.72 3632.77C2347.53 3646.98 2341.94 3661.47 2335.78 3676.52C2326.67 3698.7 2316.8 3719.49 2303.74 3742.05C2300.81 3747.08 2297.32 3752.92 2292.34 3760.64C2265.85 3801.14 2202.55 3888.89 2067.99 3925.18C1934.86 3962.83 1752.13 3937.93 1556.9 3872.53C1555.69 3872.13 1554.48 3871.73 1553.27 3871.33C1455.39 3838.8 1375.27 3805.51 1305.75 3779.26C1187.36 3734.81 1095.87 3722.75 1020.91 3720.9C926.289 3719.2 856.428 3732.39 800.116 3743.35C789.369 3745.51 779.221 3747.66 769.566 3749.76C755.496 3752.82 742.467 3755.78 730.111 3758.63C705.279 3764.38 683.783 3770.67 662.372 3778.18C565.589 3813.36 501.592 3857.79 444.011 3926.5C394.961 3984.76 356.413 4073.2 349.865 4154.52C349.853 4154.64 349.842 4154.76 349.83 4154.88C348.922 4164.51 348.366 4173.95 348.124 4183.24ZM519.504 6650.98C500.142 6654.92 484.836 6657.57 484.903 6657.04C485.002 6656.5 500.469 6652.99 519.846 6649.04C566.054 6639.63 611.76 6630.03 657.633 6620.02C677.152 6615.76 692.289 6612.79 692.295 6613.31C692.147 6613.86 676.84 6617.7 657.317 6621.96C611.448 6631.97 565.737 6641.57 519.504 6650.98ZM367.944 4102.88C363.594 4121.42 360.675 4140.22 359.66 4144.47C358.697 4148.71 359.335 4136.66 362.879 4117.85C364.789 4107.93 368.145 4091.61 374.902 4070.22C395.158 3987.64 506.091 3814.81 732.15 3767.5C898.289 3723.05 1108.72 3707.98 1302.92 3786.81C1315.86 3791.65 1330 3797.07 1343.25 3802.18C1381.81 3817.07 1416.21 3830.4 1449.36 3842.67C1590.84 3887.11 1705.83 3956.59 1993.01 3945.07C2149.02 3933.51 2286.91 3825.31 2341.3 3678.79C2414.59 3502.37 2451.59 3294.07 2364.89 3117.77C2279.4 2941.33 2096.04 2838.12 1913.84 2780.42C1698.62 2713.4 1472.23 2688.15 1256.5 2619.42C1044.5 2560.11 821.144 2402.14 815.697 2162.18C793.977 1940.98 928.952 1738.28 1094.16 1603.76C1142.47 1562.98 1194.05 1526.39 1245.3 1490.21C1491.43 1354.63 1760.86 1195.12 1846.16 913.164C1852.94 891.298 1859 867.603 1863.82 842.096C1921.86 532.989 1637.35 125.787 1571.93 39.6747C1560.07 23.8289 1550.55 11.2153 1551.19 11.206C1551.59 10.9029 1561.93 23.2366 1573.84 39.1725C1639.09 125.062 1923.92 533.165 1865.62 842.435C1860.98 866.945 1855.24 889.685 1848.79 910.836C1764.33 1195.1 1492.9 1356.02 1246.37 1491.7C1196.56 1526.89 1146.31 1562.48 1099.24 1601.9C932.566 1736.54 795.749 1939.73 817.712 2162.02C823.336 2400.94 1045.35 2557.83 1257.2 2617.02C1472.68 2685.48 1699.04 2710.51 1914.78 2777.46C2097.45 2835.14 2281.86 2938.51 2368.17 3116.27C2455.63 3293.93 2418.34 3503.42 2344.96 3680.29C2290.27 3828.38 2149.52 3938.22 1991.88 3949.27C1705.61 3959.98 1596.1 3890.75 1454.81 3846.64C1421.6 3834.41 1387.07 3821.09 1348.14 3806.04C1332.75 3800.1 1317.09 3794.07 1302.27 3788.53C1107.81 3709.64 898.002 3725.11 732.568 3769.32C517.638 3814.71 406.605 3973.45 382.406 4054.07C374.515 4075.73 370.362 4092.47 367.944 4102.88ZM904.029 4703.37C1029.54 4719.57 1188.33 4711.93 1348.56 4680.32C1466.9 4657.27 1589.66 4644.34 1705.46 4646.09C1839.01 4647.59 1962.54 4670.08 2056.85 4702.03C2202.86 4752.34 2284.12 4811.24 2353.91 4876.47C2354.65 4877.19 2355.36 4877.87 2356.13 4878.61C2400.82 4922.65 2442.19 4971.79 2475.97 5043.82C2493.38 5082.21 2512.17 5125.35 2528.46 5177.01C2591.82 5326.29 2535.08 5562.19 2383.86 5724.21C2383.75 5724.34 2383.64 5724.47 2383.53 5724.6C2242.2 5891.32 2066.65 6031.61 1941.57 6129.54C1933.21 6136.02 1924.81 6142.5 1916.37 6148.97C1469.72 6458.58 1120.36 6506.61 960.943 6558.61C666.315 6637.03 326.364 6694.97 20.8435 6758.26C-11.4746 6765.82 42.6955 6750.33 105.45 6738.17C107.734 6737.72 110.036 6737.26 112.355 6736.8C133.14 6732.68 153.231 6728.79 178.535 6723.94C217.415 6716.44 245.281 6711.15 271.08 6706.21C339.161 6694.6 810.82 6600.38 974.092 6553.25C1124.76 6502.94 1466.51 6455.35 1913.9 6145.76C1922.76 6138.96 1931.58 6132.16 1940.36 6125.36C2062.86 6029.3 2236.57 5893.78 2379.19 5726.91C2379.57 5726.45 2379.95 5726 2380.33 5725.55C2530.44 5565.44 2591.21 5329.52 2526.78 5177.76C2510.61 5126.43 2491.8 5083.15 2474.3 5044.59C2438.29 4967.97 2393.54 4916.88 2346.9 4872.37C2346.22 4871.73 2345.53 4871.09 2344.84 4870.45C2274.57 4806.94 2196.81 4752.32 2056.46 4703.83C1960.32 4671.24 1835.38 4648.97 1701.09 4647.87C1586.55 4646.49 1465.47 4659.42 1348.91 4682.12C1189.61 4713.52 1032.08 4721.3 906.891 4705.57C887.478 4703.24 870.871 4700.13 870.184 4699.51C869.389 4698.86 884.537 4700.97 904.029 4703.37ZM909.839 4692.59C1054.96 4709.27 1202.11 4696.13 1346.17 4668.06C1749.88 4583.25 2278.57 4632.89 2488.19 5038.21C2507.28 5080.17 2525.09 5122.98 2539.2 5167.26C2606.91 5320.06 2547.11 5570.72 2391.96 5733.68C2390.36 5735.58 2388.74 5737.49 2387.11 5739.4C2242.5 5906.91 2068.05 6043.83 1945.41 6139.83C1937.89 6145.65 1930.33 6151.47 1922.75 6157.29C1471.22 6470.14 1119.7 6518.53 959.492 6570.79C801.705 6610.92 757.752 6619.64 692.369 6634.58C690.6 6634.98 688.833 6635.37 687.067 6635.76C686.951 6635.79 686.834 6635.82 686.718 6635.84C684.503 6636.36 682.642 6636.79 681.685 6637C679.731 6637.45 678.157 6637.8 677.54 6637.94C676.135 6638.25 674.957 6638.51 674.538 6638.61C672.824 6638.99 670.866 6639.42 669.605 6639.69C657.672 6642.32 621.85 6650.06 592.499 6656.17C562.753 6662.37 541.885 6666.56 519.335 6671.06C517.073 6671.51 514.815 6671.96 512.561 6672.4C492.731 6676.33 470.36 6680.73 439.059 6686.8C420.357 6690.42 405.881 6692.78 408.314 6691.79C410.611 6690.83 428.269 6687.02 447.189 6683.34C480.499 6676.86 503.648 6672.29 523.88 6668.26C526.131 6667.81 528.384 6667.36 530.642 6666.91C552.496 6662.53 570.415 6658.9 596.996 6653.35C635.076 6645.34 663.334 6639.16 689.068 6633.44C756.654 6618 807.663 6607.8 972.615 6565.46C1124.21 6514.75 1467.54 6469.58 1921.63 6155.83C1929.16 6150.06 1936.65 6144.29 1944.12 6138.51C2066.97 6042.37 2241.54 5905.29 2385.81 5738.1C2387.49 5736.14 2389.14 5734.18 2390.79 5732.22C2545.78 5569.15 2604.74 5320.12 2537.52 5168.02C2523.26 5123.69 2505.32 5080.95 2486.15 5039.15C2271.95 4632.65 1749.17 4589 1346.83 4671.46C1204.21 4698.92 1057.93 4711.79 912.736 4694.78C800.63 4681.83 700.106 4650.66 617.994 4602.95C493.908 4531.88 416.558 4422.78 382.86 4312.45C350.126 4206.69 364.868 4097.82 410.646 4009.81C429.869 3972.35 495.506 3860.97 658.085 3801.29C682.059 3792.39 707.226 3784.81 734.667 3778.45C761.283 3772.3 788.997 3766.1 817.865 3760.52C954.705 3731.53 1124.9 3730.4 1298.62 3798.25C1306.01 3801.01 1313.75 3803.95 1321.81 3807.03C1360.41 3821.85 1394.69 3835.25 1427.72 3847.63C1569.95 3893.33 1680.84 3962.88 1973.86 3960.25C2111.86 3958.13 2291.54 3859.45 2353.68 3683.88C2481.49 3424.15 2425.97 3076.78 2257.93 2953.23C2136.48 2845.68 2046.35 2816.83 1988.06 2791.92C1971.56 2785.54 1956.49 2780.13 1943.05 2775.53C1934.39 2772.57 1926.12 2769.84 1918.01 2767.25C1893.38 2759.4 1870.49 2752.72 1842.58 2745.2C1578.45 2673.05 1378.77 2670.46 1095.6 2540.25C1078.4 2531.45 1063.93 2522.53 1062.94 2521.36C1061.9 2520.15 1074.76 2527.33 1091.76 2536.19C1373.94 2668.14 1576.91 2670.61 1844.76 2743.89C1871.92 2751.23 1894.95 2757.97 1918.57 2765.5C1928.66 2768.73 1938.84 2772.11 1949.47 2775.81C1962.76 2780.43 1977.31 2785.73 1992.9 2791.83C2050.32 2816.68 2139.51 2845.4 2260.41 2953.03C2428.26 3077.21 2483.01 3425.2 2355.37 3684.57C2293.18 3860.43 2112.91 3959.75 1974.89 3962.01C1683.97 3965.11 1575.17 3897.04 1433.27 3851.68C1400.35 3839.39 1365.27 3825.72 1326.6 3810.84C1317.11 3807.2 1307 3803.34 1297.97 3799.97C1126.55 3733.1 958.569 3733.22 823.179 3761.38C792.518 3767.19 763.175 3773.75 735.079 3780.24C709.587 3786.15 686.19 3793.08 663.771 3801.16C498.48 3861.06 437.745 3966.74 419.637 3997.22C368.245 4087.15 350.446 4201.71 384.613 4311.9C418.82 4424.23 498.307 4533.42 622.003 4603.14C703.307 4649.7 801.55 4679.73 909.839 4692.59ZM1093.05 1623.15C1078.36 1635.75 1065.54 1646.96 1064.2 1647.5C1062.86 1648.06 1073.32 1637.78 1088.09 1625C1153.67 1568.48 1208.92 1531.23 1252.37 1500.11C1260.07 1494.62 1268.53 1489.37 1276.61 1484.54C1370.07 1431.25 1416.83 1407.08 1482.82 1364.32C1653.43 1256.03 1796.22 1104.85 1852.06 934.6C1862.37 904.444 1870.15 874.525 1875.84 844.363C1910.39 588.196 1794.43 399.695 1749.19 300.645C1740.06 283.054 1732.78 268.927 1733.32 268.845C1733.87 268.816 1742.02 282.834 1751.15 300.447C1796.17 399.324 1912.23 587.356 1877.64 844.702C1872.12 873.962 1864.63 903.024 1854.79 932.263C1799.59 1103.48 1656.43 1256.2 1484.6 1365.35C1420.55 1406.79 1376.44 1430.19 1284.79 1481.84C1274.86 1487.66 1263.6 1494.37 1253.44 1501.61C1210.94 1532.04 1157.07 1568.4 1093.05 1623.15Z" fill="#D74ED7"/>
</g>
<defs>
<filter id="filter0_f_891_1450" x="1.23983e-05" y="4.76858e-06" width="2578" height="6771.46" filterUnits="userSpaceOnUse" color-interpolation-filters="sRGB">
<feFlood flood-opacity="0" result="BackgroundImageFix"/>
<feBlend mode="normal" in="SourceGraphic" in2="BackgroundImageFix" result="shape"/>
<feGaussianBlur stdDeviation="5.6" result="effect1_foregroundBlur_891_1450"/>
</filter>
</defs>
</svg>
