<svg width="2442" height="6243" viewBox="0 0 2442 6243" fill="none" xmlns="http://www.w3.org/2000/svg">
<g filter="url(#filter0_f_891_1451)">
<path d="M1601.36 322.233C1646.19 411.831 1691.06 528.851 1704.8 626.554C1705 627.913 1705.2 629.271 1705.39 630.629C1710.9 670.324 1713.85 711.513 1708.85 760.268C1708.19 766.439 1707.37 772.807 1706.37 779.256C1705.63 784.051 1704.8 788.909 1703.84 793.829C1693.05 848.522 1673.63 914.704 1627.33 991.801C1458.88 1254.33 1202.93 1338.76 1122.67 1399.29C1116.76 1403.53 1110.74 1407.81 1106.17 1411.05C975.693 1507.1 811.18 1615.28 732.647 1852.97C726.312 1874.56 721.196 1897.07 717.591 1920.54C714.668 1939.39 713.054 1955.33 712.502 1955.67C711.983 1956.11 712.675 1940.77 715.548 1921.79C719.015 1898.76 723.951 1876.57 730.029 1855.42C730.057 1855.32 730.085 1855.22 730.113 1855.12C808.64 1614.99 971.1 1509.04 1097.75 1414.78C1104.53 1409.95 1112.6 1404.24 1121.6 1397.78C1208.8 1333.82 1465.22 1247.87 1629.61 984.382C1672.76 910.623 1691.57 846.645 1702.02 793.486C1703.61 785.3 1704.88 777.292 1705.89 769.457C1706.71 763.152 1707.36 757.014 1707.88 750.979C1707.89 750.837 1707.9 750.695 1707.92 750.553C1711.81 701.413 1708.21 662.331 1702.62 624.419C1702.49 623.615 1702.37 622.811 1702.24 622.006C1687.54 523.539 1642.82 409.243 1599.42 322.434C1591.18 305.76 1584.64 292.412 1585.17 292.317C1585.72 292.291 1593.13 305.535 1601.36 322.233ZM331.316 3883.23C320.127 3939.12 320.195 4009.03 341.141 4075.61C356.158 4124.21 379.024 4171.2 407.055 4211.42C473.619 4308.8 569.376 4362.68 613.667 4383.61C657.393 4404.63 708.364 4422.92 771.375 4436.47C785.486 4439.5 800.984 4442.4 816.293 4444.84C867.775 4453.08 925.73 4457.72 989.388 4457.42C1100.77 4456.62 1192.85 4442.74 1270 4428.01C1353.79 4411.81 1421.74 4403.86 1477.99 4399.63C1499.49 4398.02 1520.94 4396.9 1539.78 4396.28C1539.81 4396.27 1539.84 4396.27 1539.87 4396.27C1612.48 4393.98 1666.92 4397.08 1716.43 4402.52C1804.09 4412.8 1875.57 4428.97 1956.69 4460.55C2070.16 4501.14 2210.71 4606.46 2268.95 4701.95C2272.25 4706.92 2275.66 4712.22 2278.95 4717.58C2287.77 4731.92 2296.61 4747.96 2304.52 4764.96C2333.31 4830.27 2377.6 4907.55 2401.82 5021.97C2427.12 5143.92 2385.9 5252.18 2333.68 5330.74C2319.06 5353.16 2303.39 5374.15 2287.26 5393.97C2246.98 5443.22 2206.76 5482.87 2167.28 5519.2C2019.28 5652.31 1893.1 5733.2 1798.25 5795.78C1734.28 5836.99 1680.63 5863.92 1636.54 5884.74C1552.31 5923.76 1503.34 5940.46 1468.03 5953.17C1457.27 5956.95 1447.97 5960.13 1439.05 5963.14C1359.6 5989.86 1285.55 6011.25 1195.6 6033.46C1175.65 6038.36 1154.81 6043.28 1133.01 6048.23C1060.09 6064.69 1005.34 6075.45 962.423 6083.73C943.729 6087.31 927.05 6090.43 911.459 6093.27C911.171 6093.33 910.883 6093.38 910.595 6093.43C908.419 6093.83 906.26 6094.22 904.117 6094.61C902.501 6094.9 900.889 6095.2 899.274 6095.49C898.64 6095.61 898.071 6095.71 897.646 6095.79C897.31 6095.86 897.048 6095.91 896.88 6095.94C896.848 6095.94 896.816 6095.95 896.785 6095.96C893.729 6096.53 891.099 6097 890.559 6097.1C889.618 6097.27 888.783 6097.42 888.356 6097.49C886.102 6097.89 883.197 6098.4 881.268 6098.73C876.278 6099.6 867.56 6101.11 854.148 6103.37C842.474 6105.35 831.295 6107.24 817.35 6109.55C816.471 6109.69 815.596 6109.84 814.703 6109.99C800.941 6112.25 784.87 6114.86 764.84 6117.99C746.759 6120.82 729.519 6123 727.055 6122.85C724.511 6122.72 737.406 6120.37 755.731 6117.54C774.563 6114.62 789.578 6112.21 803.319 6109.97C804.19 6109.83 805.061 6109.69 805.932 6109.54C820.339 6107.19 833.625 6104.97 848.211 6102.51C853.081 6101.69 858.108 6100.83 862.808 6100.03C871.263 6098.58 880.932 6096.88 892.339 6094.84C894.636 6094.43 897.007 6094.01 899.431 6093.57C914.971 6090.77 933.213 6087.41 953.616 6083.53C1001.37 6074.4 1061.98 6062.55 1141.24 6044.46C1162.04 6039.69 1182.15 6034.89 1201.73 6030.05C1291.92 6007.61 1371.4 5984.54 1455.42 5955.53C1466.9 5951.55 1478.05 5947.61 1489.78 5943.34C1524.31 5930.5 1566.4 5915.62 1643.82 5879.26C1685.07 5859.51 1736.04 5833.69 1797.25 5794.24C1889.98 5733.02 2015.07 5653.11 2163.64 5520.04C2205.07 5482.13 2248.01 5439.62 2288.58 5389.43C2304.1 5370.17 2319.16 5349.75 2332.78 5328.75C2383.8 5251.42 2423.46 5147.6 2401.42 5030.09C2377.96 4910.88 2332.12 4832.6 2302.82 4765.75C2297.13 4753.54 2290.98 4741.82 2284.58 4730.71C2283.17 4728.26 2281.84 4725.99 2280.43 4723.64C2278.7 4720.75 2276.93 4717.86 2275.14 4715C2216.36 4611.85 2066.8 4498.64 1940.82 4456.47C1862.86 4427.91 1794.62 4412.94 1707.3 4403.39C1664.35 4399.08 1617.65 4396.06 1546.57 4397.9C1527.17 4398.45 1504.32 4399.53 1480.53 4401.28C1423.5 4405.48 1354.88 4413.47 1270.35 4429.81C1191.84 4444.79 1098.21 4458.86 984.937 4459.27C923.232 4459.31 867.697 4454.87 816.394 4446.71C800.743 4444.22 784.679 4441.22 769.786 4438C706.312 4424.32 649.214 4404.2 598.998 4378.42C558.519 4358.04 466.427 4303.85 402.573 4208.14C375.12 4167.79 353.599 4122.1 339.392 4076.16C319.795 4013.67 318.848 3950.41 326.363 3900.88C327.686 3891.92 329.349 3882.85 331.304 3873.93C347.602 3796.4 391.093 3725.2 436.726 3679.02C491.486 3620.63 579.458 3569.03 683.791 3545.19C848.072 3499.64 1056.91 3493.27 1228.62 3564.97C1333.83 3605.67 1433.6 3644.52 1523.57 3671.11C1527.83 3672.39 1532.14 3673.67 1536.39 3674.91C1722.6 3730.24 1896.77 3744.85 2019.11 3701.1C2142.9 3658.42 2195.88 3571.38 2218.31 3531.76C2220.47 3527.85 2222.4 3524.23 2224.11 3520.93C2225.55 3518.15 2226.83 3515.61 2227.95 3513.34C2233.08 3502.98 2237.77 3492.52 2242.14 3481.87C2252.05 3457.62 2260.3 3435.07 2268.03 3411C2268.63 3409.13 2269.22 3407.27 2269.8 3405.41C2281.23 3368.65 2291.16 3329.94 2297.93 3283.18C2324.55 3107.65 2266.03 2963.81 2186 2871.1C2171.25 2853.6 2155.85 2837.51 2140.07 2822.61C2140.02 2822.57 2139.98 2822.53 2139.93 2822.48C2070.2 2757.2 1995.41 2714.21 1922.01 2680.75C1877.42 2660.61 1836.24 2645.72 1798.62 2633.79C1723.09 2610.2 1661.91 2596.97 1610.97 2585.75C1586.95 2580.56 1564.76 2575.95 1543.89 2571.68C1498.54 2562.4 1459 2554.56 1418.09 2546.08C1341.2 2530.14 1270.53 2514.53 1201.49 2495.5C1195.32 2493.8 1189.18 2492.07 1183.06 2490.31C1108.72 2468.82 1035.18 2443.4 962.726 2404.54C945.844 2395.44 932.727 2386.88 932.565 2386.2C932.577 2385.6 945.543 2393.15 962.323 2402.23C1032.52 2440.06 1103.89 2465.26 1178.14 2486.98C1184.27 2488.76 1190.44 2490.51 1196.65 2492.25C1265.44 2511.43 1337.34 2527.45 1415.63 2543.7C1455.06 2551.88 1492.45 2559.31 1536.9 2568.37C1557.98 2572.68 1580.92 2577.41 1606.14 2582.83C1658.47 2594.3 1721.43 2607.77 1799.18 2632.04C1836.6 2643.91 1877.44 2658.68 1921.53 2678.52C1994.2 2711.57 2068.36 2753.74 2138.66 2818.78C2154.71 2833.75 2170.38 2849.93 2185.44 2867.61C2266.47 2960.36 2326.51 3105.41 2299.89 3282.42C2293.54 3326.68 2284.47 3363.56 2273.27 3400.42C2272.66 3402.43 2272.03 3404.44 2271.4 3406.46C2263.61 3431.25 2254.75 3455.9 2243.83 3482.57C2239.66 3492.75 2235.16 3502.81 2230.28 3512.76C2227.92 3517.57 2224.82 3523.69 2220.68 3531.25C2198.27 3571.15 2145.17 3659.31 2020.38 3702.6C1897.08 3746.93 1721.82 3732.04 1534.81 3676.35C1533.65 3676.01 1532.46 3675.66 1531.29 3675.32C1403.54 3637.27 1307.09 3596.67 1227.89 3566.92C1149.67 3537.56 1085.59 3523.81 1029.93 3517.12C940.607 3506.75 873.026 3513.57 818.902 3521.13C808.543 3522.63 798.784 3524.2 789.51 3525.79C749.411 3532.74 718.14 3539.8 687.022 3547.02C686.131 3547.22 685.241 3547.43 684.355 3547.64C590.573 3570.6 525.798 3602.72 461.801 3657.9C406.972 3704.9 356.414 3781.41 337.477 3856.61C337.447 3856.73 337.417 3856.84 337.387 3856.95C335.027 3865.78 332.997 3874.61 331.316 3883.23ZM499.177 6155.53C480.403 6157.84 465.594 6159.23 465.694 6158.71C465.826 6158.18 480.849 6155.94 499.638 6153.63C543.651 6148.19 587.86 6142.55 632.203 6136.57C650.555 6134.09 665.537 6132.42 665.433 6132.95C665.317 6133.47 650.137 6136 631.777 6138.47C587.408 6144.46 543.216 6150.09 499.177 6155.53ZM363.048 3811.28C356.023 3827.96 350.309 3845.05 348.659 3848.87C347.067 3852.66 349.531 3841.52 355.842 3824.45C359.193 3815.5 364.944 3800.72 374.667 3781.82C405.224 3715.89 506.7 3595.7 686.431 3556.67C839.577 3515.81 1038.49 3499.08 1224.98 3574.64C1259.86 3587.7 1295.09 3601.51 1330.64 3614.89C1367.22 3628.69 1400.05 3640.57 1431.82 3651.43C1567.06 3689.64 1679.32 3752.83 1950.77 3726.3C2085.06 3707.16 2201.3 3611.94 2249.29 3484.81C2321.64 3314 2343.77 3108.42 2247.51 2944.2C2153.58 2779.99 1978.3 2681.39 1801.41 2624.99C1592.31 2560.45 1372.46 2537.18 1162.21 2473.21C957.555 2417.5 729.309 2276.49 722.627 2041.29C702.569 1836.62 824.752 1647.71 976.622 1521.53C1024.81 1480.06 1076.51 1443.24 1128.08 1406.86C1358.84 1279.54 1611.01 1130.8 1693.34 867.583C1700.43 845.456 1706.73 821.329 1711.65 795.301C1766.07 501.995 1497.91 119.609 1436.42 38.2694C1425.15 23.2075 1416.14 11.2348 1416.77 11.2062C1417.17 10.9062 1426.99 22.5888 1438.31 37.7378C1499.64 118.876 1768.12 502.078 1713.45 795.64C1708.71 820.711 1702.69 844.021 1695.96 865.381C1614.38 1130.89 1360.26 1280.94 1129.14 1408.35C1078.85 1443.85 1028.59 1479.59 981.54 1519.75C828.18 1646.11 704.35 1835.48 724.634 2041.13C731.45 2275.15 958.32 2415.22 1162.88 2470.8C1372.89 2534.52 1592.7 2557.54 1802.36 2622.01C1979.75 2678.41 2155.93 2777.12 2250.7 2942.48C2347.81 3107.9 2325.47 3314.98 2252.96 3486.31C2204.61 3614.97 2085.87 3711.74 1949.96 3730.55C1679.18 3756.24 1572.14 3692.97 1437.06 3655.16C1405.21 3644.35 1372.32 3632.52 1335.11 3618.54C1297.81 3604.55 1260.83 3590.03 1224.33 3576.36C1037.52 3500.72 839.201 3517.89 686.85 3558.49C517.068 3595.69 417.575 3704.66 384.35 3767.94C373.515 3786.93 366.947 3801.97 363.048 3811.28ZM789.052 4430.14C921.645 4456.73 1096.24 4451.98 1268.03 4417.85C1361.83 4399.6 1457.73 4388.1 1548.89 4385.86C1675.75 4382.3 1793.94 4398.28 1884.7 4424.52C2025.28 4465.9 2104.68 4518.49 2173.65 4577.73C2174.38 4578.37 2175.11 4579.02 2175.84 4579.67C2226.21 4625.52 2273.44 4677.34 2313.03 4761.06C2325.88 4789.25 2340.04 4819.69 2354.79 4853.82C2424.04 4983.04 2454.27 5220.32 2307.03 5382.78C2306.93 5382.91 2306.83 5383.04 2306.73 5383.17C2177.35 5547.04 2002.6 5669.13 1877.19 5755.67C1852.75 5772.21 1828.64 5788.16 1803.78 5804.29C1388.24 6048.65 1073.04 6067.35 923.932 6102.46C639.344 6155.2 312.002 6177 20.4122 6229.93C-10.4282 6237.15 41.1584 6221.76 101.289 6212.79C103.481 6212.44 105.691 6212.1 107.917 6211.75C127.677 6208.69 146.794 6205.93 171.238 6202.59C208.248 6197.52 235.652 6194.09 259.938 6191.05C325.19 6182.97 778.441 6130.19 936.819 6098.3C1077.78 6064.09 1386.03 6045.05 1801.58 5800.91C1826.84 5784.5 1851.22 5768.37 1876.2 5751.44C1999.06 5666.47 2171.6 5549.27 2302.59 5385.52C2302.94 5385.07 2303.29 5384.62 2303.64 5384.16C2367.23 5303.26 2414.48 5205.52 2415.53 5107.63C2417.6 5010.17 2382.58 4924.07 2353.19 4854.73C2338.49 4820.71 2324.29 4790.18 2311.36 4761.82C2269.64 4673.72 2218.86 4620.09 2166.71 4574.14C2166.03 4573.55 2165.35 4572.96 2164.66 4572.37C2095.46 4514.93 2019.41 4466.19 1884.39 4426.34C1791.81 4399.56 1672.47 4383.86 1544.9 4387.81C1454.93 4390.27 1360.52 4401.73 1268.38 4419.65C1097.37 4453.59 923.961 4458.51 791.632 4432.5C773.391 4429.08 757.957 4424.99 757.292 4424.32C756.574 4423.62 770.952 4426.67 789.052 4430.14ZM795.379 4419.73C950.227 4447.84 1110.18 4435.65 1265.62 4405.47C1641.04 4325.32 2136.38 4373.13 2325.22 4755.46C2338.5 4784.67 2351.89 4813.82 2364.61 4843.32C2394.11 4912.67 2431.14 5000.39 2430.36 5102.64C2430.63 5205.32 2381.37 5308.45 2315.55 5391.86C2314.07 5393.77 2312.58 5395.68 2311.06 5397.59C2176.91 5562.87 2003.97 5680.86 1880.43 5766.13C1857.07 5781.92 1833.5 5797.5 1809.49 5813.09C1388.98 6060.32 1071.61 6079.15 921.708 6114.45C769.563 6140.17 726.855 6145.03 663.98 6154.13C662.264 6154.36 660.55 6154.6 658.836 6154.84C658.724 6154.85 658.611 6154.87 658.498 6154.89C656.346 6155.21 654.541 6155.47 653.612 6155.61C651.718 6155.88 650.176 6156.1 649.599 6156.18C648.265 6156.36 647.147 6156.52 646.75 6156.57C645.124 6156.8 643.265 6157.05 642.069 6157.21C631.225 6158.7 595.412 6163.45 568.05 6166.89C539.066 6170.56 519.366 6172.92 497.622 6175.51C495.43 6175.77 493.243 6176.03 491.059 6176.29C471.585 6178.59 450.92 6181.01 420.353 6184.58C401.991 6186.72 388.982 6187.81 391.115 6187.05C393.626 6186.24 409.775 6183.96 428.35 6181.79C460.867 6177.98 482.29 6175.47 502.157 6173.1C504.337 6172.84 506.521 6172.58 508.708 6172.32C528.929 6169.9 547.018 6167.71 572.433 6164.49C608.678 6159.84 636.289 6156.11 660.913 6152.7C726.03 6143.28 775.213 6137.64 934.574 6110.31C1076.47 6075.79 1386.22 6059.11 1808.49 5811.55C1832.42 5796.03 1855.93 5780.47 1879.24 5764.72C2002.96 5679.36 2176 5561.18 2309.72 5396.34C2311.27 5394.38 2312.8 5392.42 2314.32 5390.46C2380.01 5307.15 2428.87 5204.41 2428.53 5102.37C2429.25 5000.72 2392.42 4913.37 2363.01 4844.23C2350.15 4814.68 2336.65 4785.52 2323.27 4756.35C2129.8 4372.49 1639.81 4331.11 1266.3 4408.99C1112.25 4438.58 953.242 4450.58 797.99 4422.08C692.686 4402.87 600.309 4364.72 528.263 4310.96C439.949 4245.69 384.558 4158.31 357.489 4070.52C319.327 3946.26 350.168 3820.56 418.163 3731.3C442.196 3698.83 520.947 3607.6 680.658 3569.38C683.372 3568.71 686.119 3568.06 688.9 3567.41C733.516 3557.12 782.117 3546.37 834.921 3539.4C948.141 3523.11 1083.01 3533.16 1220.69 3586.04C1249.76 3596.94 1279.24 3608.46 1309.72 3620.04C1346.36 3633.98 1379.77 3646.27 1411.19 3657.23C1547.22 3696.85 1655.43 3760.43 1933.57 3742.45C2054.69 3731.97 2205.86 3643.28 2261.67 3489.89C2394.27 3229.93 2291.41 2883.98 2120 2775.34C1999.44 2680.15 1914.87 2652.9 1859 2630.28C1843.03 2624.35 1829.06 2619.53 1816.03 2615.23C1812.48 2614.07 1809.01 2612.94 1805.58 2611.84C1776.65 2602.64 1751.84 2595.6 1720.39 2587.44C1468.77 2521.79 1280.53 2517.4 1008.58 2400.97C991.834 2393.05 978.051 2385.19 976.983 2384.05C976.049 2382.96 988.274 2389.16 1004.83 2397.14C1276.02 2515.1 1467.31 2519.41 1722.45 2586.08C1753.37 2594.12 1778.61 2601.32 1806.14 2610.09C1811.39 2611.77 1816.72 2613.52 1822.19 2615.34C1834.97 2619.62 1848.57 2624.4 1863.66 2630.06C1918.56 2652.56 2002.35 2679.72 2122.38 2774.93C2293.71 2884.01 2395.87 3230.92 2263.36 3490.59C2207.48 3644.26 2055.82 3733.53 1934.66 3744.15C1658.47 3762.5 1552.23 3700.24 1416.52 3661.03C1384.8 3650.04 1351.33 3637.8 1314.35 3623.76C1282.09 3611.54 1250.87 3599.32 1220.05 3587.76C1084.41 3535.72 951.646 3525.16 839.901 3540.61C785.235 3547.55 735.111 3558.64 689.312 3569.2C688.247 3569.45 687.187 3569.7 686.131 3569.95C523.595 3608.27 450.543 3694.84 428.64 3721.02C354.522 3810.64 319.752 3941.95 359.241 4069.98C386.746 4159.33 443.543 4247.03 532.065 4311.49C603.472 4364.02 693.774 4400.81 795.379 4419.73ZM976.32 1540.41C962.302 1552.67 950.437 1563.26 949.079 1563.84C947.786 1564.38 957.642 1554.44 971.531 1542.17C1037.35 1484.33 1092.51 1447.34 1135.14 1416.76C1139.42 1413.69 1144.88 1410.13 1149.3 1407.38C1237.08 1356.19 1282.52 1333.68 1345.15 1293.4C1507.7 1191.52 1644.7 1049.51 1699.34 888.189C1710.03 857.848 1717.96 827.856 1723.68 797.568C1756.24 556.554 1647.61 379.321 1605.03 285.863C1596.37 269.119 1589.51 255.723 1590.04 255.621C1590.6 255.595 1598.32 268.869 1606.98 285.635C1649.34 378.937 1758.09 555.733 1725.47 797.907C1719.92 827.349 1712.26 856.541 1702.04 886.031C1648 1048.3 1510.6 1191.78 1346.88 1294.47C1285.97 1333.53 1243.34 1355.34 1157.27 1404.65C1150.03 1409.02 1142.85 1413.52 1136.21 1418.26C1094.49 1448.18 1040.65 1484.33 976.32 1540.41Z" fill="#15FFD6"/>
</g>
<defs>
<filter id="filter0_f_891_1451" x="1.23984e-05" y="9.53725e-07" width="2441.57" height="6243" filterUnits="userSpaceOnUse" color-interpolation-filters="sRGB">
<feFlood flood-opacity="0" result="BackgroundImageFix"/>
<feBlend mode="normal" in="SourceGraphic" in2="BackgroundImageFix" result="shape"/>
<feGaussianBlur stdDeviation="5.6" result="effect1_foregroundBlur_891_1451"/>
</filter>
</defs>
</svg>
